<svg version="1.2" xmlns="http://www.w3.org/2000/svg" viewBox="0 0 1600 900" width="1600" height="900">
	<title>New Project</title>
	<style>
		.s0 { fill: #f5f5f4 } 
		.s1 { fill: #ff4b00 } 
	</style>
	<path id="Appiario" fill-rule="evenodd" class="s0" d="m427.2 508.1c-0.6 19.5 3.5 23.7 24.5 23.7l-2.6 7.2h-87.3l2.3-7.2c24.4 0 29.1-5.4 30.2-23.7l2.4-43.2h-78l-30.6 48.3c-9.6 15.3-11.9 18.6 17.5 18.6l-2.3 7.2h-66.1l2-7.2c13.4 0 23-2.4 33.5-18.6l140.6-219h23zm-101.3-54.6h71.6l6.7-119.4h-2.7zm284.3-37.2c0 48.9-38.1 124.8-80.8 124.8-12 0-21.9-5.1-28.6-12.9l-14.2 47.1c-5.8 18.6-3.2 22.5 22.4 22.5l-3.2 7.2h-75.7l2.1-7.2c13.6 0 20.6-3.6 26.1-22.5l51.6-169.2c-10.2 18.9-25.7 39.6-43.1 51.6l-3.8-5.4c27.9-19.5 50.6-59.1 58.8-85.5v0.3l4.9-16.2h26.5l-30.5 93.9h2.6c13.4-31.5 34.3-69 59.1-69 13.9 0 25.8 12.6 25.8 40.5zm-28.5 5.7c0-16.5-3.8-24.3-11.3-24.3-17.8 0-45.4 50.4-56.8 88.2l-4.3 14.4c-0.3 16.2 5.5 28.5 16.9 28.5 26.4 0 55.5-68.1 55.5-106.8zm181.3-5.7c0 48.9-38.1 124.8-80.9 124.8-11.9 0-21.8-5.1-28.5-12.9l-14.3 47.1c-5.8 18.6-3.2 22.5 22.5 22.5l-3.2 7.2h-75.7l2-7.2c13.7 0 20.7-3.6 26.2-22.5l51.5-169.2c-10.2 18.9-25.6 39.6-43 51.6l-3.8-5.4c27.9-19.5 50.6-59.1 58.8-85.5v0.3l4.9-16.2h26.5l-30.6 93.9h2.7c13.3-31.5 34.3-69 59-69 14 0 25.9 12.6 25.9 40.5zm-28.5 5.7c0-16.5-3.8-24.3-11.3-24.3-17.8 0-45.4 50.4-56.8 88.2l-4.4 14.4c-0.2 16.2 5.6 28.5 16.9 28.5 26.5 0 55.6-68.1 55.6-106.8zm94.3-94.8c0-11.4 7.6-18.6 18.6-18.6 11.1 0 18.6 7.2 18.6 18.6 0 11.1-7.5 18.6-18.6 18.6-11 0-18.6-7.5-18.6-18.6zm-18.6 96.6c3.5-9.9 7.5-22.2 7.5-26.4 0-3.9-1.4-5.1-3.8-5.1-8.7 0-21.5 15.9-32.5 34.8h-7c13.4-26.7 35.2-50.7 56.4-50.7 10.5 0 15.5 7.8 15.5 16.5 0 7.8-3.8 18.3-8.5 31.5l-25.3 72.9c-2.3 6.6-6.1 17.1-6.1 21.3 0 4.5 1.1 6.9 5.2 6.9 10.8 0 23.9-18.9 33.5-40.8h6.7c-10.5 26.7-29.4 57-53.3 57-15.4 0-20.6-8.4-20.6-19.2 0-6.9 3.2-14.1 7.2-26.1zm193.3 60.9h6.7c-10.5 26.7-29.7 57-53.3 57-15.4 0-20.7-8.4-20.7-19.2 0-6.9 3.5-14.1 7.9-26.1l11.3-33h-2.6c-13.9 31.2-40.7 78.9-66.6 78.9-18.3 0-26.5-16.2-26.5-39.3 0-53.4 46.9-127.2 87.3-127.2 19.5 0 27.4 14.7 26.2 33.9h0.9l8.4-24c11.7 0 21-5.4 25.9-11.7l4.7 2.7-41.9 120.6c-2.4 6.9-6.4 17.1-6.4 21.3 0 4.5 1.1 6.9 5.2 6.9 10.8 0 23.6-18.9 33.5-40.8zm-46.3-44.1c3.2-9.6 5.5-19.2 5.5-29.1 0-12.9-3.5-20.4-13.1-20.4-25.9 0-61.1 65.7-61.1 108.3 0 13.5 2.6 21 9.6 21 17.2 0 48-46.8 59.1-79.8zm66.1 98.4l36.9-114.9c3.2-9.9 7-22.5 7-26.7 0-3.9-1.5-5.1-3.8-5.1-8.7 0-21.5 15.9-32.6 34.8h-7c13.4-26.7 35.2-50.7 56.5-50.7 10.5 0 15.4 7.8 15.4 16.5 0 7.8-4.4 18.3-9.3 31.2l-17.2 48h2.6c25.1-67.2 50.1-96.6 74.3-96.6 6.9 0 10.7 3.6 10.7 10.2 0 9.3-7.5 18.9-15.4 18.9-5.8 0-8.7-3.3-14.8-3.3-13.4 0-38.2 27.3-74.5 137.7zm176.9-211.8c0-11.4 7.6-18.6 18.6-18.6 11.1 0 18.6 7.2 18.6 18.6 0 11.1-7.5 18.6-18.6 18.6-11 0-18.6-7.5-18.6-18.6zm-18.6 96.6c3.5-9.9 7.5-22.2 7.5-26.4 0-3.9-1.4-5.1-3.8-5.1-8.7 0-21.5 15.9-32.5 34.8h-7c13.4-26.7 35.2-50.7 56.4-50.7 10.5 0 15.4 7.8 15.4 16.5 0 7.8-3.7 18.3-8.4 31.5l-25.3 72.9c-2.3 6.6-6.1 17.1-6.1 21.3 0 4.5 1.1 6.9 5.2 6.9 10.8 0 23.9-18.9 33.5-40.8h6.7c-10.5 26.7-29.4 57-53.3 57-15.4 0-20.6-8.4-20.6-19.2 0-6.9 3.2-14.1 7.2-26.1zm53 67.8c0-57 41.9-116.1 85-116.1 25.9 0 43.3 20.7 43.3 52.2 0 56.7-41.9 115.5-85.2 115.5-25.6 0-43.1-19.8-43.1-51.6zm101-73.5c0-18.3-5.6-30-18.1-30-25 0-55.3 65.1-55.3 112.8 0 18 5.3 29.4 17.8 29.4 25 0 55.6-63.9 55.6-112.2z"/>
	<path id="Shape 1" fill-rule="evenodd" class="s1" d="m847.6 346.5c-10.9 0-19.7-8.8-19.7-19.7 0-10.9 8.8-19.7 19.7-19.7 10.8 0 19.6 8.8 19.6 19.7 0 10.9-8.8 19.7-19.6 19.7z"/>
</svg>