<svg version="1.2" xmlns="http://www.w3.org/2000/svg" viewBox="0 0 800 800" width="800" height="800">
	<title>New Project</title>
	<defs>
		<filter x="-50%" y="-50%" width="200%" height="200%" id="f1" ><feDropShadow dx="0" dy="0" stdDeviation="20.833333333333336" flood-color="#ff6600" flood-opacity="1.2"/></filter>
		<linearGradient id="g1" x2="1" gradientUnits="userSpaceOnUse" gradientTransform="matrix(780.514,0,0,707.614,10,399.807)">
			<stop offset="0" stop-color="#ff4b00"/>
			<stop offset=".48" stop-color="#ec0a7f"/>
			<stop offset="1" stop-color="#b74a7f"/>
		</linearGradient>
	</defs>
	<style>
		.s0 { filter: url(#f1);fill: url(#g1) } 
	</style>
	<path fill-rule="evenodd" class="s0" d="m495 622.4l-108.8 95.2-70-16.5-3.9-7.8 103-91.3-50.5-127.3 5.8-4.9 71 17.5zm150.6 33l-106.9 98.2-13.6-3.9-56.4-13.6-10.7-1.9 6.8-4.9 103.1-91.4-53.5-134.1 8.8 1.9 70.9 17.5zm-305.2-70.9l-59.3 51.5-40.8-75.8 70.9-49.6zm154.6-400.4l-53.5 227.4-132.2 88.5-69.9-174 44.7-190.5 132.2-89.5zm-376.2 448.1l-105-21.4-3.9-136 110.8-75.9 108.9 29.2v127.3zm551.1 29.2l-6.8-18.5 127.4 69-132.2-38.8z"/>
</svg>